<svg xmlns="http://www.w3.org/2000/svg" width="256" height="256" viewBox="0 0 256 256">
  <!-- History Mover brand mark: Home Assistant tile style (orange #F49500,
       off-white #F2F4F9 glyph). The glyph is the Material Design Icons
       "history" clock-with-back-arrow (Pictogrammers, Apache-2.0). -->
  <rect width="256" height="256" rx="56" fill="#F49500"/>
  <path transform="translate(56 53) scale(6.25)" fill="#F2F4F9"
        d="M13.5,8H12V13L16.28,15.54L17,14.33L13.5,12.25V8M13,3A9,9 0 0,0 4,12H1L4.96,16.03L9,12H6A7,7 0 0,1 13,5A7,7 0 0,1 20,12A7,7 0 0,1 13,19C11.07,19 9.32,18.21 8.06,16.94L6.64,18.36C8.27,20 10.5,21 13,21A9,9 0 0,0 22,12A9,9 0 0,0 13,3Z"/>
</svg>
